<?xml version="1.0" encoding="utf-8"?>
<!-- Generator: Adobe Illustrator 15.1.0, SVG Export Plug-In . SVG Version: 6.00 Build 0)  -->
<!DOCTYPE svg PUBLIC "-//W3C//DTD SVG 1.1//EN" "http://www.w3.org/Graphics/SVG/1.1/DTD/svg11.dtd">
<svg version="1.1" id="Layer_1" xmlns="http://www.w3.org/2000/svg" xmlns:xlink="http://www.w3.org/1999/xlink" x="0px" y="0px"
	 width="91.49px" height="77.645px" viewBox="0 0 91.49 77.645" enable-background="new 0 0 91.49 77.645" xml:space="preserve">
<g>
	<path d="M8.553,14.476c-0.919,0-1.664-0.745-1.664-1.664V3.225c0-0.919,0.745-1.664,1.664-1.664h7.543
		c0.92,0,1.665,0.745,1.665,1.664v2.913c0,0.919-0.745,1.664-1.665,1.664c-0.918,0-1.664-0.745-1.664-1.664V4.889h-4.215v7.923
		C10.218,13.73,9.472,14.476,8.553,14.476z"/>
</g>
<g>
	<path d="M60.706,36.152L56.688,24.02l-2.49,0.667l2.488,12.036H51.12l2.486-12.036l-2.491-0.668l-3.471,10.487
		l-0.133,1.754l1.286,0.344l-6.123,39.683c-0.084,0.545,0.289,1.057,0.836,1.141c0.05,0.008,0.101,0.012,0.152,0.012
		c0.485,0,0.912-0.354,0.987-0.848l1.779-11.515h14.95l1.8,11.664c0.075,0.493,0.502,0.848,0.987,0.848
		c0.048,0,0.101-0.004,0.151-0.012c0.548-0.084,0.92-0.596,0.836-1.142l-6.146-39.83L60.706,36.152z M57.233,38.223l1.553,10.063
		l-7.889-10.063H57.233z M50.414,39.228l8.562,10.921H48.729L50.414,39.228z M46.659,63.575l1.738-11.271l12.314,11.271H46.659z
		 M59.306,51.649l1.668,10.81l-11.811-10.81H59.306z"/>
	<polygon points="53.606,12.516 51.019,0 47.099,1.051 51.117,13.183 	"/>
	<circle cx="53.901" cy="18.602" r="2.379"/>
	<polygon points="60.706,1.051 56.784,0.001 54.196,12.516 56.687,13.183 	"/>
	<polygon points="59.024,15.303 68.567,6.804 65.698,3.935 57.2,13.479 	"/>
	<polygon points="50.604,13.478 42.105,3.934 39.236,6.803 48.78,15.302 	"/>
	<polygon points="57.2,23.724 65.7,33.268 68.567,30.398 59.024,21.9 	"/>
	<path d="M82.17,12.966c-1.708,0.144-3.122,0.973-4.011,2.188l-6.793,0.394l0.333-0.068l-0.986-3.68L59.319,15.57
		l0.627,2.34l4.014-0.831l13.561-0.786c-0.226,0.585-0.354,1.221-0.354,1.895c0,0.673,0.128,1.31,0.354,1.896l-13.555-0.785
		l-4.02-0.832l-0.629,2.341l11.394,3.771l0.985-3.683l-0.321-0.066l6.784,0.395c0.887,1.214,2.301,2.043,4.011,2.188
		c3.59,0.301,9.32,0.604,9.32,0.604V12.361C91.49,12.361,85.76,12.665,82.17,12.966z"/>
	<polygon points="47.815,18.895 42.6,19.973 45.45,22.39 48.483,21.386 	"/>
	<polygon points="48.778,21.899 46.872,23.596 49.062,25.453 50.603,23.723 	"/>
	<polygon points="38.316,16.341 47.815,18.305 48.483,15.813 36.35,11.797 35.722,14.141 	"/>
</g>
<g>
	<path d="M45.47,26.872H1.665c-0.705,0-1.33-0.441-1.567-1.104c-0.237-0.663-0.032-1.399,0.512-1.846L22.513,5.963
		c0.613-0.503,1.496-0.503,2.109,0l21.902,17.958c0.543,0.447,0.748,1.185,0.512,1.846C46.8,26.43,46.173,26.872,45.47,26.872z
		 M6.318,23.543h34.497L23.566,9.402L6.318,23.543z"/>
</g>
<path d="M19.501,55.271h-7.956c-0.919,0-1.664,0.745-1.664,1.664v17.382h-6.18V54.895v-24v-0.088
	c0-0.919-0.745-1.664-1.664-1.664s-1.664,0.745-1.664,1.664v0.088v24v21.086c0,0.919,0.745,1.664,1.664,1.664h9.508
	c0.919,0,1.664-0.745,1.664-1.664V58.599h4.628C17.837,58.599,20.42,55.271,19.501,55.271z"/>
<path d="M18.036,55.271h17.956c0.919,0,1.664,0.745,1.664,1.664v17.382h6.18V54.895v-24v-0.088
	c0-0.919,0.745-1.664,1.664-1.664s1.664,0.745,1.664,1.664v0.088v24v21.086c0,0.919-0.745,1.664-1.664,1.664h-9.508
	c-0.919,0-1.664-0.745-1.664-1.664V58.599H11.7C11.7,58.599,17.117,55.271,18.036,55.271z"/>
<line fill="none" stroke="#000000" stroke-width="2" stroke-linecap="round" stroke-miterlimit="10" x1="15.81" y1="60.27" x2="31.997" y2="76.458"/>
<line fill="none" stroke="#000000" stroke-width="2" stroke-linecap="round" stroke-miterlimit="10" x1="31.997" y1="60.27" x2="15.81" y2="76.458"/>
<path fill="none" stroke="#000000" stroke-width="3" stroke-linecap="round" stroke-linejoin="round" stroke-miterlimit="10" d="
	M35.56,50.27c-8.4,0-12.603,0-24.25,0c0-6.694,5.43-16.125,12.125-16.125S35.56,43.575,35.56,50.27z"/>
<line fill="none" stroke="#000000" stroke-width="2" stroke-linecap="round" stroke-linejoin="round" stroke-miterlimit="10" x1="23.06" y1="35.145" x2="23.06" y2="49.479"/>
</svg>
