<?xml version="1.0" encoding="utf-8"?>
<!-- Generator: Adobe Illustrator 15.1.0, SVG Export Plug-In . SVG Version: 6.00 Build 0)  -->
<!DOCTYPE svg PUBLIC "-//W3C//DTD SVG 1.1//EN" "http://www.w3.org/Graphics/SVG/1.1/DTD/svg11.dtd">
<svg version="1.1" class="choiceicon" xmlns="http://www.w3.org/2000/svg" xmlns:xlink="http://www.w3.org/1999/xlink" x="0px" y="0px"
	 width="47.438px" height="120.084px" viewBox="0 0 47.438 120.084" enable-background="new 0 0 47.438 120.084"
	 xml:space="preserve">
<g>
	<g>
		<path d="M17.95,112.344H9.994c-0.919,0-1.665-0.744-1.665-1.664V99.441c0-0.92,0.746-1.664,1.665-1.664h7.956
			c0.919,0,1.664,0.744,1.664,1.664v11.236C19.614,111.6,18.869,112.344,17.95,112.344z M11.658,109.016h4.627v-7.91h-4.627V109.016
			z"/>
	</g>
</g>
<g>
	<g>
		<path d="M17.95,89.809H9.994c-0.919,0-1.665-0.744-1.665-1.662v-11.24c0-0.918,0.746-1.664,1.665-1.664h7.956
			c0.919,0,1.664,0.746,1.664,1.664v11.238C19.614,89.063,18.869,89.809,17.95,89.809z M11.658,86.48h4.627v-7.91h-4.627V86.48z"/>
	</g>
</g>
<g>
	<g>
		<path d="M17.95,67.273H9.994c-0.919,0-1.665-0.746-1.665-1.664V54.372c0-0.919,0.746-1.664,1.665-1.664h7.956
			c0.919,0,1.664,0.745,1.664,1.664v11.237C19.614,66.527,18.869,67.273,17.95,67.273z M11.658,63.945h4.627v-7.909h-4.627V63.945z"
			/>
	</g>
</g>
<g>
	<g>
		<path d="M36.266,89.809H28.31c-0.919,0-1.664-0.744-1.664-1.662v-11.24c0-0.918,0.745-1.664,1.664-1.664h7.956
			c0.919,0,1.664,0.746,1.664,1.664v11.238C37.93,89.063,37.185,89.809,36.266,89.809z M29.974,86.48h4.628v-7.91h-4.628V86.48z"/>
	</g>
</g>
<g>
	<g>
		<path d="M36.266,67.273H28.31c-0.919,0-1.664-0.746-1.664-1.664V54.372c0-0.919,0.745-1.664,1.664-1.664h7.956
			c0.919,0,1.664,0.745,1.664,1.664v11.237C37.93,66.527,37.185,67.273,36.266,67.273z M29.974,63.945h4.628v-7.909h-4.628V63.945z"
			/>
	</g>
</g>
<g>
	<g>
		<path d="M17.95,46.273H9.994c-0.919,0-1.665-0.745-1.665-1.664V33.372c0-0.919,0.746-1.664,1.665-1.664h7.956
			c0.919,0,1.664,0.745,1.664,1.664v11.237C19.614,45.528,18.869,46.273,17.95,46.273z M11.658,42.945h4.627v-7.909h-4.627V42.945z"
			/>
	</g>
</g>
<g>
	<g>
		<path d="M36.266,46.273H28.31c-0.919,0-1.664-0.745-1.664-1.664V33.372c0-0.919,0.745-1.664,1.664-1.664h7.956
			c0.919,0,1.664,0.745,1.664,1.664v11.237C37.93,45.528,37.185,46.273,36.266,46.273z M29.974,42.945h4.628v-7.909h-4.628V42.945z"
			/>
	</g>
</g>
<g>
	<path d="M8.553,12.915c-0.919,0-1.664-0.745-1.664-1.664V1.664C6.889,0.745,7.634,0,8.553,0h7.543
		c0.92,0,1.665,0.745,1.665,1.664v2.913c0,0.919-0.745,1.664-1.665,1.664c-0.918,0-1.664-0.745-1.664-1.664V3.328h-4.215v7.923
		C10.218,12.169,9.472,12.915,8.553,12.915z"/>
</g>
<g>
	<path d="M45.47,25.311H1.665c-0.704,0-1.33-0.442-1.567-1.104c-0.237-0.662-0.032-1.4,0.512-1.846L22.513,4.402
		c0.613-0.503,1.496-0.503,2.109,0L46.524,22.36c0.543,0.446,0.748,1.185,0.512,1.846C46.8,24.869,46.173,25.311,45.47,25.311z
		 M6.318,21.982h34.497L23.566,7.841L6.318,21.982z"/>
</g>
<g>
	<path d="M22.217,120.084H2.038c-0.919,0-1.664-0.745-1.664-1.664V49.246c0-0.919,0.745-1.664,1.664-1.664
		s1.664,0.745,1.664,1.664v67.51h18.515c0.92,0,1.665,0.745,1.665,1.664S23.137,120.084,22.217,120.084z"/>
</g>
<g>
	<path d="M45.773,120.084h-9.508c-0.919,0-1.664-0.745-1.664-1.664v-17.382h-4.628v17.382
		c0,0.919-0.745,1.664-1.664,1.664s-1.664-0.745-1.664-1.664V99.374c0-0.919,0.745-1.664,1.664-1.664h7.956
		c0.919,0,1.664,0.745,1.664,1.664v17.382h6.18v-67.51c0-0.919,0.745-1.664,1.664-1.664s1.664,0.745,1.664,1.664v69.174
		C47.438,119.339,46.692,120.084,45.773,120.084z"/>
</g>
<path d="M44.108,29.246c0-0.919,0.746-1.664,1.664-1.664c0.92,0,1.664,0.745,1.664,1.664v24.088h-3.328V29.246z"/>
<path d="M0.442,29.246c0-0.919,0.746-1.664,1.664-1.664c0.92,0,1.664,0.745,1.664,1.664v24.088H0.442V29.246z"/>
</svg>