<?xml version="1.0" encoding="utf-8"?>
<!-- Generator: Adobe Illustrator 15.1.0, SVG Export Plug-In . SVG Version: 6.00 Build 0)  -->
<!DOCTYPE svg PUBLIC "-//W3C//DTD SVG 1.1//EN" "http://www.w3.org/Graphics/SVG/1.1/DTD/svg11.dtd">
<svg version="1.1" id="Layer_1" xmlns="http://www.w3.org/2000/svg" xmlns:xlink="http://www.w3.org/1999/xlink" x="0px" y="0px"
	 width="47.437px" height="74.084px" viewBox="0 0 47.437 74.084" enable-background="new 0 0 47.437 74.084" xml:space="preserve">
<g>
	<g>
		<path d="M28.196,64.678V53.441c0-0.92,0.746-1.664,1.664-1.664h7.957c0.918,0,1.664,0.744,1.664,1.664V64.68
			c0,0.92-0.746,1.664-1.664,1.664H29.86C28.942,66.344,28.196,65.6,28.196,64.678z M36.153,55.105h-4.627v7.91h4.627V55.105z"/>
	</g>
</g>
<g>
	<g>
		<path d="M28.196,42.145V30.906c0-0.918,0.746-1.664,1.664-1.664h7.957c0.918,0,1.664,0.746,1.664,1.664v11.24
			c0,0.918-0.746,1.662-1.664,1.662H29.86C28.942,43.809,28.196,43.063,28.196,42.145z M36.153,32.57h-4.627v7.91h4.627V32.57z"/>
	</g>
</g>
<g>
	<g>
		<path d="M9.881,42.145V30.906c0-0.918,0.745-1.664,1.664-1.664h7.956c0.919,0,1.664,0.746,1.664,1.664v11.24
			c0,0.918-0.745,1.662-1.664,1.662h-7.956C10.626,43.809,9.881,43.063,9.881,42.145z M17.837,32.57h-4.628v7.91h4.628V32.57z"/>
	</g>
</g>
<g>
	<path d="M38.434,11.251V3.328h-4.215v1.249c0,0.919-0.746,1.664-1.664,1.664c-0.92,0-1.665-0.745-1.665-1.664V1.664
		C30.89,0.745,31.635,0,32.555,0h7.543c0.919,0,1.664,0.745,1.664,1.664v9.587c0,0.919-0.745,1.664-1.664,1.664
		S38.433,12.169,38.434,11.251z"/>
</g>
<g>
	<path d="M45.47,23.311H1.665c-0.705,0-1.33-0.441-1.567-1.104s-0.032-1.4,0.512-1.846L22.513,2.402
		c0.613-0.503,1.496-0.503,2.109,0L46.524,20.36c0.543,0.447,0.748,1.185,0.512,1.846C46.8,22.869,46.173,23.311,45.47,23.311z
		 M6.318,19.982h34.497L23.566,5.841L6.318,19.982z"/>
</g>
<path d="M44.108,27.246c0-0.919,0.746-1.664,1.664-1.664c0.92,0,1.664,0.745,1.664,1.664v24.088h-3.328V27.246z"/>
<path d="M25.594,70.756h18.515V27.334h3.328V72.42c0,0.919-0.744,1.664-1.664,1.664H25.594
	c-0.92,0-1.665-0.745-1.665-1.664S24.674,70.756,25.594,70.756z"/>
<path d="M0.373,27.246c0-0.919,0.745-1.664,1.664-1.664s1.664,0.745,1.664,1.664v24.088H0.373V27.246z"/>
<path d="M3.701,27.334v43.422h6.18V53.374c0-0.919,0.745-1.664,1.664-1.664h7.956c0.919,0,1.664,0.745,1.664,1.664
	V72.42c0,0.919-0.745,1.664-1.664,1.664s-1.664-0.745-1.664-1.664V55.038h-4.628V72.42c0,0.919-0.745,1.664-1.664,1.664H2.037
	c-0.919,0-1.664-0.745-1.664-1.664V27.334H3.701z"/>
</svg>
